---
title: "GIMP - GAP - OGV movie files"
date: 2010-09-04
forum: Art &amp; Design
---

### Post by 23dornot23d on 2010-09-04
Hi

Can anybody help me find a way to convert OGV files to individual frames ..... to use in GIMP to create GIF's.

There have been scripts written ..... but when I search the web none seem to let me download them.

I use recordmydesktop to save files that I would like to use in small animations.

Thanks in advance for any advice to solve this problem ;)

I tried this ......

```

keith@keith-laptop:~$ ffmpeg -r 0.25 frame%d.jpg -i out-3.ogv
FFmpeg version 0.6-4:0.6-2ubuntu2, Copyright (c) 2000-2010 the FFmpeg developers
  built on Jul 12 2010 01:02:19 with gcc 4.4.4
  configuration: --extra-version=4:0.6-2ubuntu2 --prefix=/usr --enable-avfilter --enable-avfilter-lavf --enable-vdpau --enable-bzlib --enable-libgsm --enable-libschroedinger --enable-libspeex --enable-libtheora --enable-libvorbis --enable-vaapi --enable-pthreads --enable-zlib --enable-libvpx --disable-stripping --enable-runtime-cpudetect --enable-gpl --enable-postproc --enable-x11grab --enable-libdc1394 --enable-shared --disable-static
  WARNING: library configuration mismatch
  libavutil   configuration: --extra-version=4:0.6-2ubuntu1 --prefix=/usr --enable-avfilter --enable-avfilter-lavf --enable-vdpau --enable-bzlib --enable-libdirac --enable-libgsm --enable-libopenjpeg --enable-libschroedinger --enable-libspeex --enable-libtheora --enable-libvorbis --enable-vaapi --enable-pthreads --enable-zlib --enable-libvpx --disable-stripping --enable-runtime-cpudetect --enable-libmp3lame --enable-gpl --enable-postproc --enable-x11grab --enable-libfaad --enable-libxvid --enable-libx264 --enable-librtmp --enable-libdc1394 --shlibdir=/usr/lib/i686/cmov --cpu=i686 --enable-shared --disable-static --disable-ffmpeg --disable-ffplay
  libavcodec  configuration: --extra-version=4:0.6-2ubuntu1 --prefix=/usr --enable-avfilter --enable-avfilter-lavf --enable-vdpau --enable-bzlib --enable-libdirac --enable-libgsm --enable-libopenjpeg --enable-libschroedinger --enable-libspeex --enable-libtheora --enable-libvorbis --enable-vaapi --enable-pthreads --enable-zlib --enable-libvpx --disable-stripping --enable-runtime-cpudetect --enable-libmp3lame --enable-gpl --enable-postproc --enable-x11grab --enable-libfaad --enable-libxvid --enable-libx264 --enable-librtmp --enable-libdc1394 --shlibdir=/usr/lib/i686/cmov --cpu=i686 --enable-shared --disable-static --disable-ffmpeg --disable-ffplay
  libavformat configuration: --extra-version=4:0.6-2ubuntu1 --prefix=/usr --enable-avfilter --enable-avfilter-lavf --enable-vdpau --enable-bzlib --enable-libdirac --enable-libgsm --enable-libopenjpeg --enable-libschroedinger --enable-libspeex --enable-libtheora --enable-libvorbis --enable-vaapi --enable-pthreads --enable-zlib --enable-libvpx --disable-stripping --enable-runtime-cpudetect --enable-libmp3lame --enable-gpl --enable-postproc --enable-x11grab --enable-libfaad --enable-libxvid --enable-libx264 --enable-librtmp --enable-libdc1394 --shlibdir=/usr/lib/i686/cmov --cpu=i686 --enable-shared --disable-static --disable-ffmpeg --disable-ffplay
  libavdevice configuration: --extra-version=4:0.6-2ubuntu2 --prefix=/usr --enable-avfilter --enable-avfilter-lavf --enable-vdpau --enable-bzlib --enable-libgsm --enable-libschroedinger --enable-libspeex --enable-libtheora --enable-libvorbis --enable-vaapi --enable-pthreads --enable-zlib --enable-libvpx --disable-stripping --enable-runtime-cpudetect --enable-gpl --enable-postproc --enable-x11grab --enable-libdc1394 --shlibdir=/usr/lib/i686/cmov --cpu=i686 --enable-shared --disable-static --disable-ffmpeg --disable-ffplay
  libavfilter configuration: --extra-version=4:0.6-2ubuntu2 --prefix=/usr --enable-avfilter --enable-avfilter-lavf --enable-vdpau --enable-bzlib --enable-libgsm --enable-libschroedinger --enable-libspeex --enable-libtheora --enable-libvorbis --enable-vaapi --enable-pthreads --enable-zlib --enable-libvpx --disable-stripping --enable-runtime-cpudetect --enable-gpl --enable-postproc --enable-x11grab --enable-libdc1394 --shlibdir=/usr/lib/i686/cmov --cpu=i686 --enable-shared --disable-static --disable-ffmpeg --disable-ffplay
  libswscale  configuration: --extra-version=4:0.6-2ubuntu1 --prefix=/usr --enable-avfilter --enable-avfilter-lavf --enable-vdpau --enable-bzlib --enable-libdirac --enable-libgsm --enable-libopenjpeg --enable-libschroedinger --enable-libspeex --enable-libtheora --enable-libvorbis --enable-vaapi --enable-pthreads --enable-zlib --enable-libvpx --disable-stripping --enable-runtime-cpudetect --enable-libmp3lame --enable-gpl --enable-postproc --enable-x11grab --enable-libfaad --enable-libxvid --enable-libx264 --enable-librtmp --enable-libdc1394 --shlibdir=/usr/lib/i686/cmov --cpu=i686 --enable-shared --disable-static --disable-ffmpeg --disable-ffplay
  libpostproc configuration: --extra-version=4:0.6-2ubuntu1 --prefix=/usr --enable-avfilter --enable-avfilter-lavf --enable-vdpau --enable-bzlib --enable-libdirac --enable-libgsm --enable-libopenjpeg --enable-libschroedinger --enable-libspeex --enable-libtheora --enable-libvorbis --enable-vaapi --enable-pthreads --enable-zlib --enable-libvpx --disable-stripping --enable-runtime-cpudetect --enable-libmp3lame --enable-gpl --enable-postproc --enable-x11grab --enable-libfaad --enable-libxvid --enable-libx264 --enable-librtmp --enable-libdc1394 --shlibdir=/usr/lib/i686/cmov --cpu=i686 --enable-shared --disable-static --disable-ffmpeg --disable-ffplay
  libavutil     50.15. 1 / 50.15. 1
  libavcodec    52.72. 2 / 52.72. 2
  libavformat   52.64. 2 / 52.64. 2
  libavdevice   52. 2. 0 / 52. 2. 0
  libavfilter    1.19. 0 /  1.19. 0
  libswscale     0.11. 0 /  0.11. 0
  libpostproc   51. 2. 0 / 51. 2. 0
Input #0, ogg, from 'out-3.ogv':
  Duration: 00:00:29.33, start: 0.000000, bitrate: 7602 kb/s
    Stream #0.0: Data: skeleton
    Stream #0.1: Video: theora, yuv420p, 1440x896 [PAR 1:1 DAR 45:28], 15 fps, 15 tbr, 15 tbn, 15 tbc
    Stream #0.2: Audio: vorbis, 22050 Hz, mono, s16, 74 kb/s
picture size invalid (0x0)
Cannot allocate temp picture, check pix fmt
keith@keith-laptop:~$ 


```Interesting ..... loaded openshot and output as a youtube movie file ..... mpeg
Then tried the same command and gave it a size too [COLOR=Blue]**-s 640x480**[/COLOR]

```

keith@keith-laptop:~/Desktop$ ffmpeg -r 0.25 **-s 640x480**   frame%d.jpg -i ProjectSpiral.mpeg
FFmpeg version 0.6-4:0.6-2ubuntu2, Copyright (c) 2000-2010 the FFmpeg developers
  built on Jul 12 2010 01:02:19 with gcc 4.4.4
  configuration: --extra-version=4:0.6-2ubuntu2 --prefix=/usr --enable-avfilter --enable-avfilter-lavf --enable-vdpau --enable-bzlib --enable-libgsm --enable-libschroedinger --enable-libspeex --enable-libtheora --enable-libvorbis --enable-vaapi --enable-pthreads --enable-zlib --enable-libvpx --disable-stripping --enable-runtime-cpudetect --enable-gpl --enable-postproc --enable-x11grab --enable-libdc1394 --enable-shared --disable-static
  WARNING: library configuration mismatch
  libavutil   configuration: --extra-version=4:0.6-2ubuntu1 --prefix=/usr --enable-avfilter --enable-avfilter-lavf --enable-vdpau --enable-bzlib --enable-libdirac --enable-libgsm --enable-libopenjpeg --enable-libschroedinger --enable-libspeex --enable-libtheora --enable-libvorbis --enable-vaapi --enable-pthreads --enable-zlib --enable-libvpx --disable-stripping --enable-runtime-cpudetect --enable-libmp3lame --enable-gpl --enable-postproc --enable-x11grab --enable-libfaad --enable-libxvid --enable-libx264 --enable-librtmp --enable-libdc1394 --shlibdir=/usr/lib/i686/cmov --cpu=i686 --enable-shared --disable-static --disable-ffmpeg --disable-ffplay
  libavcodec  configuration: --extra-version=4:0.6-2ubuntu1 --prefix=/usr --enable-avfilter --enable-avfilter-lavf --enable-vdpau --enable-bzlib --enable-libdirac --enable-libgsm --enable-libopenjpeg --enable-libschroedinger --enable-libspeex --enable-libtheora --enable-libvorbis --enable-vaapi --enable-pthreads --enable-zlib --enable-libvpx --disable-stripping --enable-runtime-cpudetect --enable-libmp3lame --enable-gpl --enable-postproc --enable-x11grab --enable-libfaad --enable-libxvid --enable-libx264 --enable-librtmp --enable-libdc1394 --shlibdir=/usr/lib/i686/cmov --cpu=i686 --enable-shared --disable-static --disable-ffmpeg --disable-ffplay
  libavformat configuration: --extra-version=4:0.6-2ubuntu1 --prefix=/usr --enable-avfilter --enable-avfilter-lavf --enable-vdpau --enable-bzlib --enable-libdirac --enable-libgsm --enable-libopenjpeg --enable-libschroedinger --enable-libspeex --enable-libtheora --enable-libvorbis --enable-vaapi --enable-pthreads --enable-zlib --enable-libvpx --disable-stripping --enable-runtime-cpudetect --enable-libmp3lame --enable-gpl --enable-postproc --enable-x11grab --enable-libfaad --enable-libxvid --enable-libx264 --enable-librtmp --enable-libdc1394 --shlibdir=/usr/lib/i686/cmov --cpu=i686 --enable-shared --disable-static --disable-ffmpeg --disable-ffplay
  libavdevice configuration: --extra-version=4:0.6-2ubuntu2 --prefix=/usr --enable-avfilter --enable-avfilter-lavf --enable-vdpau --enable-bzlib --enable-libgsm --enable-libschroedinger --enable-libspeex --enable-libtheora --enable-libvorbis --enable-vaapi --enable-pthreads --enable-zlib --enable-libvpx --disable-stripping --enable-runtime-cpudetect --enable-gpl --enable-postproc --enable-x11grab --enable-libdc1394 --shlibdir=/usr/lib/i686/cmov --cpu=i686 --enable-shared --disable-static --disable-ffmpeg --disable-ffplay
  libavfilter configuration: --extra-version=4:0.6-2ubuntu2 --prefix=/usr --enable-avfilter --enable-avfilter-lavf --enable-vdpau --enable-bzlib --enable-libgsm --enable-libschroedinger --enable-libspeex --enable-libtheora --enable-libvorbis --enable-vaapi --enable-pthreads --enable-zlib --enable-libvpx --disable-stripping --enable-runtime-cpudetect --enable-gpl --enable-postproc --enable-x11grab --enable-libdc1394 --shlibdir=/usr/lib/i686/cmov --cpu=i686 --enable-shared --disable-static --disable-ffmpeg --disable-ffplay
  libswscale  configuration: --extra-version=4:0.6-2ubuntu1 --prefix=/usr --enable-avfilter --enable-avfilter-lavf --enable-vdpau --enable-bzlib --enable-libdirac --enable-libgsm --enable-libopenjpeg --enable-libschroedinger --enable-libspeex --enable-libtheora --enable-libvorbis --enable-vaapi --enable-pthreads --enable-zlib --enable-libvpx --disable-stripping --enable-runtime-cpudetect --enable-libmp3lame --enable-gpl --enable-postproc --enable-x11grab --enable-libfaad --enable-libxvid --enable-libx264 --enable-librtmp --enable-libdc1394 --shlibdir=/usr/lib/i686/cmov --cpu=i686 --enable-shared --disable-static --disable-ffmpeg --disable-ffplay
  libpostproc configuration: --extra-version=4:0.6-2ubuntu1 --prefix=/usr --enable-avfilter --enable-avfilter-lavf --enable-vdpau --enable-bzlib --enable-libdirac --enable-libgsm --enable-libopenjpeg --enable-libschroedinger --enable-libspeex --enable-libtheora --enable-libvorbis --enable-vaapi --enable-pthreads --enable-zlib --enable-libvpx --disable-stripping --enable-runtime-cpudetect --enable-libmp3lame --enable-gpl --enable-postproc --enable-x11grab --enable-libfaad --enable-libxvid --enable-libx264 --enable-librtmp --enable-libdc1394 --shlibdir=/usr/lib/i686/cmov --cpu=i686 --enable-shared --disable-static --disable-ffmpeg --disable-ffplay
  libavutil     50.15. 1 / 50.15. 1
  libavcodec    52.72. 2 / 52.72. 2
  libavformat   52.64. 2 / 52.64. 2
  libavdevice   52. 2. 0 / 52. 2. 0
  libavfilter    1.19. 0 /  1.19. 0
  libswscale     0.11. 0 /  0.11. 0
  libpostproc   51. 2. 0 / 51. 2. 0
[mpeg @ 0x869f560]max_analyze_duration reached
Input #0, mpeg, from 'ProjectSpiral.mpeg':
  Duration: 00:00:42.30, start: 0.500000, bitrate: 5131 kb/s
    Stream #0.0[0x1e0]: Video: mpeg2video, yuv420p, 640x480 [PAR 1:1 DAR 4:3], 104857 kb/s, 29.97 fps, 29.97 tbr, 90k tbn, 59.94 tbc
    Stream #0.1[0x1c0]: Audio: mp2, 44100 Hz, 2 channels, s16, 256 kb/s
Output #0, image2, to 'frame%d.jpg':
  Metadata:
    encoder         : Lavf52.64.2
    Stream #0.0: Video: mjpeg, yuvj420p, 640x480, q=2-31, 200 kb/s, 90k tbn, 0.25 tbc
Stream mapping:
  Stream #0.0 -> #0.0
Press [q] to stop encoding
frame=    7 fps=  0 q=1.6 size=      -0kB time=28.00 bitrate=  -0.0kbits/s dup=0frame=    9 fps=  9 q=1.6 size=      -0kB time=36.00 bitrate=  -0.0kbits/s dup=0frame=   11 fps=  7 q=1.6 size=      -0kB time=44.00 bitrate=  -0.0kbits/s dup=0frame=   12 fps=  7 q=1.6 Lsize=      -0kB time=48.00 bitrate=  -0.0kbits/s dup=0 drop=1258    
video:658kB audio:0kB global headers:0kB muxing overhead -100.003264%
keith@keith-laptop:~/Desktop$ 


```The result .... a series of frames

[IMG]http://i52.tinypic.com/2el6wax.jpg[/IMG]

Also worked on the other OGV file too

```

keith@keith-laptop:~$ ffmpeg -r 0.25 -s 640-480 frame%d.jpg -i  out-3.ogv
FFmpeg version 0.6-4:0.6-2ubuntu2, Copyright (c) 2000-2010 the FFmpeg developers
  built on Jul 12 2010 01:02:19 with gcc 4.4.4
  configuration: --extra-version=4:0.6-2ubuntu2 --prefix=/usr --enable-avfilter --enable-avfilter-lavf --enable-vdpau --enable-bzlib --enable-libgsm --enable-libschroedinger --enable-libspeex --enable-libtheora --enable-libvorbis --enable-vaapi --enable-pthreads --enable-zlib --enable-libvpx --disable-stripping --enable-runtime-cpudetect --enable-gpl --enable-postproc --enable-x11grab --enable-libdc1394 --enable-shared --disable-static
  WARNING: library configuration mismatch
  libavutil   configuration: --extra-version=4:0.6-2ubuntu1 --prefix=/usr --enable-avfilter --enable-avfilter-lavf --enable-vdpau --enable-bzlib --enable-libdirac --enable-libgsm --enable-libopenjpeg --enable-libschroedinger --enable-libspeex --enable-libtheora --enable-libvorbis --enable-vaapi --enable-pthreads --enable-zlib --enable-libvpx --disable-stripping --enable-runtime-cpudetect --enable-libmp3lame --enable-gpl --enable-postproc --enable-x11grab --enable-libfaad --enable-libxvid --enable-libx264 --enable-librtmp --enable-libdc1394 --shlibdir=/usr/lib/i686/cmov --cpu=i686 --enable-shared --disable-static --disable-ffmpeg --disable-ffplay
  libavcodec  configuration: --extra-version=4:0.6-2ubuntu1 --prefix=/usr --enable-avfilter --enable-avfilter-lavf --enable-vdpau --enable-bzlib --enable-libdirac --enable-libgsm --enable-libopenjpeg --enable-libschroedinger --enable-libspeex --enable-libtheora --enable-libvorbis --enable-vaapi --enable-pthreads --enable-zlib --enable-libvpx --disable-stripping --enable-runtime-cpudetect --enable-libmp3lame --enable-gpl --enable-postproc --enable-x11grab --enable-libfaad --enable-libxvid --enable-libx264 --enable-librtmp --enable-libdc1394 --shlibdir=/usr/lib/i686/cmov --cpu=i686 --enable-shared --disable-static --disable-ffmpeg --disable-ffplay
  libavformat configuration: --extra-version=4:0.6-2ubuntu1 --prefix=/usr --enable-avfilter --enable-avfilter-lavf --enable-vdpau --enable-bzlib --enable-libdirac --enable-libgsm --enable-libopenjpeg --enable-libschroedinger --enable-libspeex --enable-libtheora --enable-libvorbis --enable-vaapi --enable-pthreads --enable-zlib --enable-libvpx --disable-stripping --enable-runtime-cpudetect --enable-libmp3lame --enable-gpl --enable-postproc --enable-x11grab --enable-libfaad --enable-libxvid --enable-libx264 --enable-librtmp --enable-libdc1394 --shlibdir=/usr/lib/i686/cmov --cpu=i686 --enable-shared --disable-static --disable-ffmpeg --disable-ffplay
  libavdevice configuration: --extra-version=4:0.6-2ubuntu2 --prefix=/usr --enable-avfilter --enable-avfilter-lavf --enable-vdpau --enable-bzlib --enable-libgsm --enable-libschroedinger --enable-libspeex --enable-libtheora --enable-libvorbis --enable-vaapi --enable-pthreads --enable-zlib --enable-libvpx --disable-stripping --enable-runtime-cpudetect --enable-gpl --enable-postproc --enable-x11grab --enable-libdc1394 --shlibdir=/usr/lib/i686/cmov --cpu=i686 --enable-shared --disable-static --disable-ffmpeg --disable-ffplay
  libavfilter configuration: --extra-version=4:0.6-2ubuntu2 --prefix=/usr --enable-avfilter --enable-avfilter-lavf --enable-vdpau --enable-bzlib --enable-libgsm --enable-libschroedinger --enable-libspeex --enable-libtheora --enable-libvorbis --enable-vaapi --enable-pthreads --enable-zlib --enable-libvpx --disable-stripping --enable-runtime-cpudetect --enable-gpl --enable-postproc --enable-x11grab --enable-libdc1394 --shlibdir=/usr/lib/i686/cmov --cpu=i686 --enable-shared --disable-static --disable-ffmpeg --disable-ffplay
  libswscale  configuration: --extra-version=4:0.6-2ubuntu1 --prefix=/usr --enable-avfilter --enable-avfilter-lavf --enable-vdpau --enable-bzlib --enable-libdirac --enable-libgsm --enable-libopenjpeg --enable-libschroedinger --enable-libspeex --enable-libtheora --enable-libvorbis --enable-vaapi --enable-pthreads --enable-zlib --enable-libvpx --disable-stripping --enable-runtime-cpudetect --enable-libmp3lame --enable-gpl --enable-postproc --enable-x11grab --enable-libfaad --enable-libxvid --enable-libx264 --enable-librtmp --enable-libdc1394 --shlibdir=/usr/lib/i686/cmov --cpu=i686 --enable-shared --disable-static --disable-ffmpeg --disable-ffplay
  libpostproc configuration: --extra-version=4:0.6-2ubuntu1 --prefix=/usr --enable-avfilter --enable-avfilter-lavf --enable-vdpau --enable-bzlib --enable-libdirac --enable-libgsm --enable-libopenjpeg --enable-libschroedinger --enable-libspeex --enable-libtheora --enable-libvorbis --enable-vaapi --enable-pthreads --enable-zlib --enable-libvpx --disable-stripping --enable-runtime-cpudetect --enable-libmp3lame --enable-gpl --enable-postproc --enable-x11grab --enable-libfaad --enable-libxvid --enable-libx264 --enable-librtmp --enable-libdc1394 --shlibdir=/usr/lib/i686/cmov --cpu=i686 --enable-shared --disable-static --disable-ffmpeg --disable-ffplay
  libavutil     50.15. 1 / 50.15. 1
  libavcodec    52.72. 2 / 52.72. 2
  libavformat   52.64. 2 / 52.64. 2
  libavdevice   52. 2. 0 / 52. 2. 0
  libavfilter    1.19. 0 /  1.19. 0
  libswscale     0.11. 0 /  0.11. 0
  libpostproc   51. 2. 0 / 51. 2. 0
Input #0, ogg, from 'out-3.ogv':
  Duration: 00:00:29.33, start: 0.000000, bitrate: 7602 kb/s
    Stream #0.0: Data: skeleton
    Stream #0.1: Video: theora, yuv420p, 1440x896 [PAR 1:1 DAR 45:28], 15 fps, 15 tbr, 15 tbn, 15 tbc
    Stream #0.2: Audio: vorbis, 22050 Hz, mono, s16, 74 kb/s
Output #0, image2, to 'frame%d.jpg':
  Metadata:
    encoder         : Lavf52.64.2
    Stream #0.0: Video: mjpeg, yuvj420p, 640x480, q=2-31, 200 kb/s, 90k tbn, 0.25 tbc
Stream mapping:
  Stream #0.1 -> #0.0
Press [q] to stop encoding
frame=    3 fps=  0 q=2.0 size=      -0kB time=12.00 bitrate=  -0.0kbits/s dup=0frame=    4 fps=  4 q=1.6 size=      -0kB time=16.00 bitrate=  -0.0kbits/s dup=0frame=    4 fps=  2 q=1.6 size=      -0kB time=16.00 bitrate=  -0.0kbits/s dup=0frame=    5 fps=  2 q=1.6 size=      -0kB time=20.00 bitrate=  -0.0kbits/s dup=0frame=    5 fps=  2 q=1.6 size=      -0kB time=20.00 bitrate=  -0.0kbits/s dup=0frame=    7 fps=  2 q=1.6 size=      -0kB time=28.00 bitrate=  -0.0kbits/s dup=0frame=    9 fps=  3 q=1.6 Lsize=      -0kB time=36.00 bitrate=  -0.0kbits/s dup=0 drop=254    
video:725kB audio:0kB global headers:0kB muxing overhead -100.002964%
keith@keith-laptop:~$ 


```

---

